first trial
nRows=16
nColumns=38

# SIMM Motion File Header:
name Sujet_05_velo_100.mvnx
datacolumns 38
datarows 16
otherdata 1
range 0.0000 0.2500
endheader
time pelvis_tilt  pelvis_list  pelvis_rotation  pelvis_tx  pelvis_ty  pelvis_tz  hip_flexion_r  hip_adduction_r  hip_rotation_r  knee_angle_r  ankle_angle_r  subtalar_angle_r  mtp_angle_r  hip_flexion_l  hip_adduction_l  hip_rotation_l  knee_angle_l  ankle_angle_l  subtalar_angle_l  mtp_angle_l  lumbar_extension  lumbar_bending  lumbar_rotation  arm_flex_r  arm_add_r  arm_rot_r  elbow_flex_r  pro_sup_r  wrist_flex_r  wrist_dev_r  arm_flex_l  arm_add_l  arm_rot_l  elbow_flex_l  pro_sup_l  wrist_flex_l  wrist_dev_l
0.0000	-6.0603	2.3375	-82.3785	0.0000	1.2500	-0.0000	48.7134	-13.3195	-24.5710	43.6400	-9.8006	7.0765	-0.0000	63.1022	-10.0002	-15.7699	97.9078	-16.4400	14.9382	-0.0000	-22.9867	0.5277	-3.9638	89.7892	-8.4586	15.5037	4.5157	74.3835	-55.4036	-38.2293	100.4630	-11.7563	24.4660	-2.7717	53.0716	-34.3809	-18.1881	
0.0170	-5.9158	3.0221	-82.3801	0.0000	1.2500	-0.0000	45.0245	-12.4573	-24.9026	39.7265	-12.3677	6.8104	-0.0000	66.2018	-9.1073	-15.9940	100.9042	-14.0092	15.9908	-0.0000	-22.9113	0.0476	-3.9719	88.9263	-8.8925	14.4712	5.1880	74.5977	-55.3254	-38.1897	99.9529	-11.2620	24.1590	-2.2806	53.9614	-34.1543	-17.8340	
0.0340	-5.7714	3.7065	-82.3835	0.0000	1.2500	-0.0000	41.3409	-11.6062	-25.2104	35.8156	-14.9605	6.7429	-0.0000	69.3031	-8.2629	-16.2829	103.9595	-11.6129	16.9696	-0.0000	-22.8381	-0.4328	-3.9773	88.0504	-9.3071	13.4328	5.8593	74.8082	-55.2470	-38.1501	99.4368	-10.7758	23.8520	-1.7920	54.8520	-33.9283	-17.4802	
0.0500	-5.7501	4.3148	-82.4112	0.0000	1.2500	-0.0000	38.4317	-11.0151	-25.3652	33.3717	-16.9754	6.7181	0.0000	72.2703	-7.6176	-16.2083	105.7668	-9.6794	17.3079	0.0000	-22.7859	-0.8450	-3.9808	87.4798	-9.6383	12.8567	6.3634	74.7020	-55.1660	-38.1500	99.1390	-10.4143	23.6657	-1.4604	55.4756	-33.7620	-17.2633	
0.0670	-5.9483	4.8890	-82.4470	0.0000	1.2500	-0.0000	36.5415	-10.8557	-25.3699	32.8630	-18.2385	6.5347	0.0000	75.3494	-7.1996	-15.3367	105.7476	-8.4703	16.5165	-0.0000	-22.7635	-1.1904	-3.9997	87.4071	-9.8770	13.1051	6.6127	73.9733	-55.0812	-38.2317	99.2029	-10.2216	23.7093	-1.3697	55.6742	-33.6841	-17.2694	
0.0830	-6.2699	5.3873	-82.5025	0.0000	1.2500	-0.0000	35.4196	-10.9563	-25.2520	33.8162	-18.8817	6.2300	-0.0000	78.2858	-6.8939	-14.0581	104.4323	-7.6593	15.1191	0.0000	-22.7604	-1.4670	-4.0207	87.6522	-10.0580	13.8208	6.6913	72.9306	-54.9937	-38.3528	99.4904	-10.1454	23.8737	-1.4325	55.6053	-33.6649	-17.4117	
0.1000	-6.5504	5.6083	-82.6432	0.0000	1.2500	-0.0000	35.0889	-11.0516	-24.9144	36.2871	-18.7338	5.9546	-0.0000	80.1892	-6.6494	-13.1540	102.1290	-6.8019	14.0843	0.0000	-22.7645	-1.6016	-3.9979	87.9808	-10.1838	14.3951	6.6973	72.1862	-54.9049	-38.4250	99.8063	-10.1537	23.9526	-1.5459	55.4745	-33.6752	-17.5675	
0.1170	-6.7358	5.4806	-82.9029	0.0000	1.2500	-0.0000	35.6359	-11.0502	-24.3244	40.6197	-17.3534	5.7662	-0.0000	80.7519	-6.4651	-12.8403	98.8569	-5.5805	13.8310	-0.0000	-22.7731	-1.5706	-3.9162	88.3315	-10.2452	14.5402	6.6836	72.0207	-54.8056	-38.4085	100.1483	-10.2605	23.8416	-1.7080	55.3803	-33.7038	-17.7004	
0.1330	-6.8771	5.0746	-83.2516	0.0000	1.2500	-0.0000	36.9805	-11.0145	-23.5159	46.4746	-15.1873	5.5403	-0.0000	80.2870	-6.3769	-12.8869	94.5894	-4.3365	13.9658	0.0000	-22.7896	-1.3981	-3.7888	88.7659	-10.2436	14.5450	6.6016	72.1544	-54.7054	-38.3432	100.5180	-10.4540	23.6458	-1.9211	55.2237	-33.7622	-17.8471	
0.1500	-6.9667	4.4000	-83.6628	0.0000	1.2500	-0.0000	38.8957	-10.9075	-22.4893	52.8758	-13.4018	5.2036	-0.0000	78.8422	-6.4278	-13.4142	89.5361	-3.6368	14.2394	-0.0000	-22.8118	-1.0818	-3.6103	89.2323	-10.1873	14.6642	6.4032	72.3614	-54.6353	-38.2602	100.7258	-10.6608	23.4702	-2.0904	54.9147	-33.8554	-17.9943	
0.1670	-6.9983	3.3393	-84.1056	0.0000	1.2500	-0.0000	41.3748	-10.6413	-21.1295	59.7701	-12.3962	4.6205	-0.0000	76.2916	-6.6113	-14.6886	83.4845	-3.6795	14.5520	-0.0000	-22.8422	-0.5542	-3.3620	89.7384	-10.0775	15.0182	6.0108	72.5507	-54.6017	-38.1686	100.6704	-10.8486	23.3587	-2.1546	54.3380	-33.9932	-18.1384	
0.1830	-6.9689	2.0114	-84.6092	0.0000	1.2500	-0.0000	44.4326	-10.2621	-19.6236	67.1511	-11.7903	3.8937	-0.0000	72.7747	-6.8891	-16.5062	76.5558	-4.2655	15.0301	0.0000	-22.8865	0.1169	-3.0627	90.2724	-9.9023	15.4840	5.5021	72.8135	-54.5981	-38.0594	100.4507	-11.0441	23.2647	-2.1774	53.6087	-34.1663	-18.2833	
0.2000	-6.8779	0.7821	-85.2362	0.0000	1.2500	-0.0000	47.8663	-9.9546	-18.3954	74.1572	-11.5579	3.3374	0.0000	68.7294	-7.2616	-18.2899	69.5179	-5.3637	15.7542	-0.0000	-22.9440	0.7309	-2.7646	90.7537	-9.6547	15.9511	5.0610	73.1969	-54.6362	-37.9368	100.1790	-11.2622	23.1569	-2.2506	52.9825	-34.3509	-18.4261	
0.2170	-6.6889	-0.2423	-86.0921	0.0000	1.2500	-0.0000	51.7283	-9.8173	-17.6287	80.7395	-11.8882	3.0787	0.0000	64.0388	-7.7906	-19.9507	62.4513	-7.0547	16.8467	-0.0000	-23.0202	1.2199	-2.4783	91.1461	-9.2975	16.4367	4.7458	73.7433	-54.7474	-37.7857	99.9008	-11.5136	23.0598	-2.4657	52.5445	-34.5687	-18.5777	
0.2330	-6.4342	-1.1640	-87.0681	0.0000	1.2500	-0.0000	55.9515	-9.7659	-17.1485	86.9846	-12.5534	2.9698	-0.0000	58.8021	-8.3486	-21.6772	55.3745	-9.2397	18.1370	-0.0000	-23.1096	1.6516	-2.1947	91.4808	-8.8692	16.9184	4.4931	74.4081	-54.9005	-37.6208	99.5703	-11.7876	22.9494	-2.7311	52.2103	-34.7973	-18.7260	
0.2500	-6.2274	-1.9330	-87.9095	0.0000	1.2500	-0.0000	60.1507	-9.7324	-16.7660	92.2779	-12.8923	3.0232	-0.0000	53.7754	-8.7360	-23.2130	49.0550	-11.6491	19.2769	-0.0000	-23.1863	2.0294	-1.9370	91.7852	-8.4876	17.2314	4.3022	75.1078	-55.0124	-37.4910	99.1635	-12.0702	22.7218	-2.8600	51.9825	-34.9474	-18.8351	
